<svg xmlns="http://www.w3.org/2000/svg" xmlns:xlink="http://www.w3.org/1999/xlink" width="500" zoomAndPan="magnify" viewBox="0 0 375 374.999991" height="500" preserveAspectRatio="xMidYMid meet" version="1.0"><defs><g/></defs><path fill="#000000" d="M 223.023438 149.296875 C 220.382812 149.277344 217.769531 149.546875 215.1875 150.097656 C 212.605469 150.652344 210.113281 151.476562 207.710938 152.574219 C 205.308594 153.671875 203.050781 155.015625 200.941406 156.605469 C 198.832031 158.195312 196.921875 159.992188 195.203125 162 L 189.816406 168.203125 L 201.839844 182.089844 L 208.933594 173.910156 C 209.800781 172.894531 210.769531 171.984375 211.839844 171.179688 C 212.90625 170.375 214.050781 169.695312 215.269531 169.136719 C 216.484375 168.582031 217.746094 168.164062 219.054688 167.886719 C 220.363281 167.605469 221.683594 167.46875 223.023438 167.476562 C 223.621094 167.46875 224.21875 167.492188 224.8125 167.542969 C 225.40625 167.59375 226 167.671875 226.585938 167.78125 C 227.175781 167.890625 227.753906 168.03125 228.328125 168.199219 C 228.902344 168.363281 229.46875 168.558594 230.023438 168.78125 C 230.578125 169.007812 231.117188 169.257812 231.648438 169.53125 C 232.179688 169.808594 232.691406 170.113281 233.191406 170.441406 C 233.691406 170.765625 234.175781 171.121094 234.640625 171.496094 C 235.105469 171.871094 235.550781 172.269531 235.976562 172.6875 C 236.402344 173.109375 236.804688 173.546875 237.1875 174.007812 C 237.570312 174.46875 237.925781 174.945312 238.261719 175.441406 C 238.597656 175.933594 238.90625 176.445312 239.1875 176.972656 C 239.472656 177.496094 239.730469 178.035156 239.960938 178.585938 C 240.191406 179.140625 240.394531 179.699219 240.570312 180.273438 C 240.746094 180.84375 240.890625 181.421875 241.007812 182.007812 C 241.125 182.59375 241.214844 183.183594 241.273438 183.78125 C 241.332031 184.375 241.363281 184.96875 241.363281 185.566406 C 241.363281 186.164062 241.332031 186.761719 241.273438 187.355469 C 241.214844 187.953125 241.125 188.542969 241.007812 189.128906 C 240.890625 189.714844 240.746094 190.292969 240.570312 190.863281 C 240.394531 191.4375 240.191406 191.996094 239.960938 192.550781 C 239.730469 193.101562 239.472656 193.640625 239.1875 194.164062 C 238.90625 194.691406 238.597656 195.203125 238.261719 195.695312 C 237.925781 196.191406 237.570312 196.667969 237.1875 197.128906 C 236.804688 197.589844 236.402344 198.027344 235.976562 198.449219 C 235.550781 198.867188 235.105469 199.265625 234.640625 199.640625 C 234.175781 200.015625 233.691406 200.367188 233.191406 200.695312 C 232.691406 201.023438 232.179688 201.328125 231.648438 201.605469 C 231.117188 201.878906 230.578125 202.128906 230.023438 202.351562 C 229.46875 202.578125 228.902344 202.773438 228.328125 202.9375 C 227.753906 203.105469 227.175781 203.246094 226.585938 203.355469 C 226 203.464844 225.40625 203.542969 224.8125 203.59375 C 224.21875 203.644531 223.621094 203.667969 223.023438 203.660156 C 221.691406 203.667969 220.371094 203.53125 219.066406 203.253906 C 217.761719 202.976562 216.503906 202.558594 215.292969 202.003906 C 214.078125 201.453125 212.941406 200.773438 211.875 199.972656 C 210.808594 199.171875 209.84375 198.261719 208.976562 197.25 C 182.644531 166.84375 195.15625 181.332031 178.433594 161.976562 C 176.714844 159.972656 174.800781 158.179688 172.6875 156.589844 C 170.578125 155.003906 168.324219 153.664062 165.921875 152.570312 C 163.519531 151.472656 161.027344 150.648438 158.445312 150.097656 C 155.863281 149.546875 153.253906 149.277344 150.613281 149.296875 C 149.421875 149.289062 148.230469 149.339844 147.042969 149.449219 C 145.855469 149.554688 144.671875 149.722656 143.503906 149.949219 C 142.332031 150.175781 141.171875 150.457031 140.027344 150.796875 C 138.886719 151.140625 137.761719 151.535156 136.65625 151.984375 C 135.550781 152.4375 134.472656 152.941406 133.417969 153.496094 C 132.363281 154.054688 131.335938 154.664062 130.34375 155.320312 C 129.347656 155.980469 128.386719 156.6875 127.460938 157.441406 C 126.535156 158.195312 125.652344 158.992188 124.804688 159.832031 C 123.957031 160.671875 123.15625 161.554688 122.394531 162.472656 C 121.636719 163.394531 120.921875 164.347656 120.257812 165.339844 C 119.59375 166.328125 118.976562 167.351562 118.414062 168.402344 C 117.847656 169.453125 117.335938 170.527344 116.878906 171.628906 C 116.417969 172.730469 116.015625 173.851562 115.667969 174.992188 C 115.320312 176.136719 115.03125 177.292969 114.796875 178.460938 C 114.5625 179.632812 114.386719 180.808594 114.269531 181.996094 C 114.152344 183.183594 114.09375 184.375 114.09375 185.566406 C 114.09375 186.761719 114.152344 187.953125 114.269531 189.140625 C 114.386719 190.328125 114.5625 191.503906 114.796875 192.675781 C 115.03125 193.84375 115.320312 195 115.667969 196.140625 C 116.015625 197.285156 116.417969 198.40625 116.878906 199.507812 C 117.335938 200.609375 117.847656 201.683594 118.414062 202.734375 C 118.976562 203.785156 119.59375 204.808594 120.257812 205.796875 C 120.921875 206.789062 121.636719 207.742188 122.394531 208.664062 C 123.15625 209.582031 123.957031 210.464844 124.804688 211.304688 C 125.652344 212.144531 126.535156 212.941406 127.460938 213.695312 C 128.386719 214.449219 129.347656 215.15625 130.34375 215.8125 C 131.335938 216.472656 132.363281 217.082031 133.417969 217.636719 C 134.472656 218.195312 135.550781 218.699219 136.65625 219.152344 C 137.761719 219.601562 138.886719 219.996094 140.027344 220.335938 C 141.171875 220.675781 142.332031 220.960938 143.503906 221.1875 C 144.671875 221.414062 145.855469 221.578125 147.042969 221.6875 C 148.230469 221.796875 149.421875 221.847656 150.613281 221.839844 C 153.253906 221.859375 155.867188 221.589844 158.449219 221.039062 C 161.03125 220.484375 163.523438 219.660156 165.925781 218.5625 C 168.328125 217.464844 170.585938 216.121094 172.695312 214.53125 C 174.804688 212.941406 176.714844 211.144531 178.433594 209.136719 L 183.816406 202.933594 L 171.796875 189.046875 L 164.703125 197.226562 C 163.835938 198.242188 162.863281 199.152344 161.796875 199.957031 C 160.726562 200.761719 159.585938 201.441406 158.367188 201.996094 C 157.152344 202.554688 155.890625 202.972656 154.582031 203.25 C 153.273438 203.53125 151.949219 203.667969 150.613281 203.660156 C 150.015625 203.667969 149.417969 203.644531 148.824219 203.59375 C 148.226562 203.542969 147.636719 203.464844 147.050781 203.355469 C 146.460938 203.246094 145.882812 203.105469 145.308594 202.9375 C 144.734375 202.773438 144.167969 202.578125 143.613281 202.351562 C 143.058594 202.128906 142.519531 201.878906 141.988281 201.605469 C 141.457031 201.328125 140.945312 201.023438 140.445312 200.695312 C 139.945312 200.367188 139.460938 200.015625 138.996094 199.640625 C 138.53125 199.265625 138.085938 198.867188 137.660156 198.449219 C 137.234375 198.027344 136.832031 197.589844 136.449219 197.128906 C 136.066406 196.667969 135.710938 196.191406 135.375 195.695312 C 135.039062 195.203125 134.730469 194.691406 134.449219 194.164062 C 134.164062 193.640625 133.90625 193.101562 133.675781 192.546875 C 133.445312 191.996094 133.242188 191.4375 133.066406 190.863281 C 132.890625 190.292969 132.746094 189.714844 132.628906 189.128906 C 132.511719 188.542969 132.421875 187.953125 132.363281 187.355469 C 132.304688 186.761719 132.273438 186.164062 132.273438 185.566406 C 132.273438 184.96875 132.304688 184.375 132.363281 183.78125 C 132.421875 183.183594 132.511719 182.59375 132.628906 182.007812 C 132.746094 181.421875 132.890625 180.84375 133.066406 180.273438 C 133.242188 179.699219 133.445312 179.140625 133.675781 178.585938 C 133.90625 178.035156 134.164062 177.496094 134.449219 176.972656 C 134.730469 176.445312 135.039062 175.933594 135.375 175.441406 C 135.710938 174.945312 136.066406 174.46875 136.449219 174.007812 C 136.832031 173.546875 137.234375 173.109375 137.660156 172.6875 C 138.085938 172.269531 138.53125 171.871094 138.996094 171.496094 C 139.460938 171.121094 139.945312 170.765625 140.445312 170.441406 C 140.945312 170.113281 141.457031 169.808594 141.988281 169.53125 C 142.519531 169.257812 143.058594 169.007812 143.613281 168.78125 C 144.167969 168.558594 144.734375 168.363281 145.308594 168.199219 C 145.882812 168.03125 146.460938 167.890625 147.050781 167.78125 C 147.636719 167.671875 148.226562 167.59375 148.824219 167.542969 C 149.417969 167.492188 150.015625 167.46875 150.613281 167.476562 C 151.945312 167.46875 153.265625 167.601562 154.570312 167.882812 C 155.871094 168.160156 157.132812 168.578125 158.34375 169.128906 C 159.558594 169.683594 160.695312 170.363281 161.761719 171.164062 C 162.824219 171.964844 163.792969 172.875 164.660156 173.886719 C 190.992188 204.292969 178.480469 189.804688 195.203125 209.160156 C 195.695312 209.742188 196.203125 210.3125 196.730469 210.863281 C 197.253906 211.414062 197.796875 211.949219 198.355469 212.46875 C 198.917969 212.984375 199.492188 213.484375 200.082031 213.96875 C 200.671875 214.449219 201.277344 214.914062 201.898438 215.355469 C 202.519531 215.800781 203.152344 216.222656 203.796875 216.628906 C 204.445312 217.03125 205.101562 217.414062 205.773438 217.777344 C 206.445312 218.140625 207.125 218.484375 207.816406 218.804688 C 208.511719 219.121094 209.210938 219.421875 209.921875 219.695312 C 210.632812 219.972656 211.351562 220.226562 212.078125 220.457031 C 212.804688 220.6875 213.539062 220.894531 214.277344 221.082031 C 215.015625 221.265625 215.761719 221.425781 216.511719 221.566406 C 217.261719 221.703125 218.015625 221.816406 218.773438 221.90625 C 219.53125 222 220.289062 222.066406 221.050781 222.109375 C 221.8125 222.152344 222.574219 222.171875 223.335938 222.167969 C 224.097656 222.160156 224.859375 222.132812 225.621094 222.082031 C 226.378906 222.027344 227.136719 221.953125 227.894531 221.851562 C 228.648438 221.75 229.402344 221.628906 230.148438 221.480469 C 230.898438 221.332031 231.640625 221.164062 232.378906 220.96875 C 233.117188 220.773438 233.847656 220.558594 234.570312 220.316406 C 235.292969 220.078125 236.007812 219.816406 236.714844 219.53125 C 237.425781 219.246094 238.121094 218.941406 238.808594 218.609375 C 239.496094 218.28125 240.175781 217.933594 240.839844 217.5625 C 241.507812 217.191406 242.160156 216.800781 242.800781 216.386719 C 243.445312 215.976562 244.070312 215.542969 244.6875 215.09375 C 245.300781 214.640625 245.898438 214.171875 246.484375 213.679688 C 247.070312 213.191406 247.640625 212.683594 248.191406 212.160156 C 248.746094 211.636719 249.28125 211.09375 249.800781 210.535156 C 250.320312 209.976562 250.820312 209.402344 251.304688 208.8125 C 251.785156 208.222656 252.25 207.617188 252.695312 207 C 253.140625 206.378906 253.566406 205.746094 253.96875 205.101562 C 254.375 204.457031 254.761719 203.796875 255.125 203.128906 C 255.488281 202.457031 255.832031 201.777344 256.152344 201.085938 C 256.472656 200.394531 256.773438 199.695312 257.050781 198.984375 C 257.328125 198.273438 257.582031 197.554688 257.816406 196.828125 C 258.046875 196.101562 258.257812 195.371094 258.441406 194.628906 C 258.628906 193.890625 258.792969 193.148438 258.929688 192.398438 C 259.070312 191.648438 259.1875 190.894531 259.277344 190.136719 C 259.371094 189.378906 259.4375 188.621094 259.484375 187.859375 C 259.527344 187.097656 259.546875 186.335938 259.546875 185.574219 C 259.542969 184.8125 259.515625 184.050781 259.464844 183.289062 C 259.414062 182.53125 259.339844 181.769531 259.238281 181.015625 C 259.140625 180.257812 259.019531 179.507812 258.871094 178.757812 C 258.726562 178.011719 258.558594 177.265625 258.363281 176.53125 C 258.171875 175.792969 257.957031 175.0625 257.71875 174.335938 C 257.480469 173.613281 257.21875 172.894531 256.933594 172.1875 C 256.652344 171.480469 256.347656 170.78125 256.019531 170.09375 C 255.691406 169.40625 255.34375 168.726562 254.972656 168.0625 C 254.605469 167.394531 254.214844 166.738281 253.804688 166.097656 C 253.390625 165.453125 252.960938 164.824219 252.511719 164.210938 C 252.0625 163.59375 251.59375 162.996094 251.105469 162.410156 C 250.617188 161.824219 250.109375 161.253906 249.585938 160.699219 C 249.0625 160.144531 248.523438 159.609375 247.964844 159.089844 C 247.40625 158.566406 246.832031 158.066406 246.246094 157.582031 C 245.65625 157.097656 245.050781 156.632812 244.433594 156.1875 C 243.816406 155.742188 243.183594 155.3125 242.539062 154.90625 C 241.894531 154.5 241.238281 154.113281 240.566406 153.75 C 239.898438 153.382812 239.21875 153.039062 238.527344 152.71875 C 237.835938 152.394531 237.136719 152.09375 236.425781 151.816406 C 235.714844 151.539062 235 151.28125 234.273438 151.046875 C 233.546875 150.8125 232.816406 150.601562 232.074219 150.414062 C 231.335938 150.226562 230.59375 150.0625 229.84375 149.921875 C 229.09375 149.78125 228.339844 149.664062 227.585938 149.570312 C 226.828125 149.476562 226.070312 149.40625 225.308594 149.363281 C 224.546875 149.316406 223.785156 149.292969 223.023438 149.296875 Z M 223.023438 149.296875 " fill-opacity="1" fill-rule="nonzero"/><g fill="#ffffff" fill-opacity="1"><g transform="translate(88.516428, 200.248684)"><g><path d="M 3.0625 -25.859375 L 9.046875 -25.859375 L 9.046875 0 L 3.0625 0 Z M 3.0625 -25.859375 "/></g></g></g><g fill="#ffffff" fill-opacity="1"><g transform="translate(104.990895, 200.248684)"><g><path d="M 26.78125 -25.859375 L 26.78125 0 L 21.859375 0 L 8.96875 -15.703125 L 8.96875 0 L 3.0625 0 L 3.0625 -25.859375 L 8.015625 -25.859375 L 20.875 -10.15625 L 20.875 -25.859375 Z M 26.78125 -25.859375 "/></g></g></g><g fill="#ffffff" fill-opacity="1"><g transform="translate(139.195326, 200.248684)"><g><path d="M 9.046875 -21.046875 L 9.046875 -14.21875 L 21.015625 -14.21875 L 21.015625 -9.421875 L 9.046875 -9.421875 L 9.046875 0 L 3.0625 0 L 3.0625 -25.859375 L 22.609375 -25.859375 L 22.609375 -21.046875 Z M 9.046875 -21.046875 "/></g></g></g><g fill="#ffffff" fill-opacity="1"><g transform="translate(167.157326, 200.248684)"><g><path d="M 3.0625 -25.859375 L 9.046875 -25.859375 L 9.046875 0 L 3.0625 0 Z M 3.0625 -25.859375 "/></g></g></g><g fill="#ffffff" fill-opacity="1"><g transform="translate(183.631793, 200.248684)"><g><path d="M 26.78125 -25.859375 L 26.78125 0 L 21.859375 0 L 8.96875 -15.703125 L 8.96875 0 L 3.0625 0 L 3.0625 -25.859375 L 8.015625 -25.859375 L 20.875 -10.15625 L 20.875 -25.859375 Z M 26.78125 -25.859375 "/></g></g></g><g fill="#ffffff" fill-opacity="1"><g transform="translate(217.836224, 200.248684)"><g><path d="M 3.0625 -25.859375 L 9.046875 -25.859375 L 9.046875 0 L 3.0625 0 Z M 3.0625 -25.859375 "/></g></g></g><g fill="#ffffff" fill-opacity="1"><g transform="translate(234.310692, 200.248684)"><g><path d="M 8.421875 -20.984375 L 0.140625 -20.984375 L 0.140625 -25.859375 L 22.671875 -25.859375 L 22.671875 -20.984375 L 14.40625 -20.984375 L 14.40625 0 L 8.421875 0 Z M 8.421875 -20.984375 "/></g></g></g><g fill="#ffffff" fill-opacity="1"><g transform="translate(261.497011, 200.248684)"><g><path d="M 15.484375 -9.15625 L 15.484375 0 L 9.5 0 L 9.5 -9.234375 L -0.515625 -25.859375 L 5.84375 -25.859375 L 12.75 -14.375 L 19.65625 -25.859375 L 25.53125 -25.859375 Z M 15.484375 -9.15625 "/></g></g></g></svg>